<?xml version="1.0" encoding="iso-8859-1"?>
<!-- Uploaded to: SVG Repo, www.svgrepo.com, Generator: SVG Repo Mixer Tools -->
<svg fill="#e11d48" height="800px" width="800px" version="1.1" id="Layer_1" xmlns="http://www.w3.org/2000/svg" xmlns:xlink="http://www.w3.org/1999/xlink" 
	 viewBox="0 0 511.999 511.999" xml:space="preserve">
<g>
	<g>
		<path d="M272.695,55.934v-5.847c0.001-9.206,7.49-16.807,16.697-16.807h33.392c9.217,0,16.696-7.362,16.696-16.585
			C339.48,7.473,332.001,0,322.784,0h-33.392c-27.619,0-50.088,22.468-50.088,50.088v5.847
			c-92.543,2.974-166.959,78.989-166.959,172.242c0,9.223,7.479,16.585,16.696,16.585h16.696v83.591
			c0,67.251,45.359,126.714,110.295,144.605c3.946,1.087,7.37,3.548,9.63,6.945l16.445,24.669c6.603,9.904,21.18,9.904,27.783,0
			l16.445-24.669c2.261-3.397,5.684-5.865,9.63-6.945c64.936-17.891,110.295-77.354,110.295-144.605v-83.591h16.696
			c9.217,0,16.696-7.362,16.696-16.585C439.654,134.924,365.238,58.909,272.695,55.934z M254.315,396.908
			c-2.412,8.744-11.486,14.145-20.533,11.668c-36.065-9.93-61.262-42.92-61.262-80.224V294.96c0-9.223,7.479-16.696,16.696-16.696
			c9.217,0,16.696,7.473,16.696,16.696v33.392c0,22.327,15.109,42.077,36.74,48.027
			C251.544,378.826,256.762,388.016,254.315,396.908z"/>
	</g>
</g>
</svg>